<svg width="112" height="112" viewBox="0 0 112 112" fill="none" xmlns="http://www.w3.org/2000/svg">
<rect width="112" height="112" rx="56" fill="#FDF4D2"/>
<path d="M37.3335 39.6665C37.3335 39.3562 37.3955 39.0491 37.5157 38.763C37.6359 38.4769 37.8119 38.2177 38.0335 38.0005C40.5765 35.5077 43.9738 34.0776 47.534 34.0013C51.0942 33.925 54.5497 35.2082 57.1972 37.5898L58.0162 38.3552C59.7182 39.8464 61.904 40.6685 64.1668 40.6685C66.4297 40.6685 68.6155 39.8464 70.3175 38.3552L70.8985 37.8255C72.3218 36.6985 74.4615 37.5992 74.6552 39.4028L74.6668 39.6665V60.6665C74.6668 60.9768 74.6049 61.284 74.4847 61.57C74.3645 61.8561 74.1884 62.1153 73.9668 62.3325C71.4239 64.8254 68.0265 66.2555 64.4663 66.3318C60.9061 66.4081 57.4506 65.1248 54.8032 62.7432L53.9842 61.9778C52.3357 60.5335 50.2316 59.7154 48.0405 59.6667C45.8494 59.6181 43.711 60.3421 42.0002 61.7118V76.9998C41.9995 77.5946 41.7718 78.1666 41.3635 78.599C40.9553 79.0315 40.3973 79.2917 39.8036 79.3266C39.2099 79.3614 38.6253 79.1683 38.1692 78.7866C37.7132 78.4049 37.4201 77.8634 37.3498 77.2729L37.3335 76.9998V39.6665Z" fill="#FFC800"/>
</svg>
