<svg width="112" height="112" viewBox="0 0 112 112" fill="none" xmlns="http://www.w3.org/2000/svg">
<rect width="112" height="112" rx="56" fill="#F3E7FC"/>
<g clip-path="url(#clip0_2_3352)">
<path d="M77.5837 51.3334H67.667V39.0834C67.667 38.1165 66.8839 37.3334 65.917 37.3334H55.417C54.4501 37.3334 53.667 38.1165 53.667 39.0834V44.3334H49.0003V38.5C49.0003 37.8555 48.4782 37.3334 47.8337 37.3334H46.667C46.0224 37.3334 45.5003 37.8555 45.5003 38.5V44.3334H40.8337V38.5C40.8337 37.8555 40.3116 37.3334 39.667 37.3334H38.5003C37.8557 37.3334 37.3337 37.8555 37.3337 38.5V44.3334H34.417C33.4501 44.3334 32.667 45.1165 32.667 46.0834V72.3334C32.667 73.6218 33.7119 74.6667 35.0003 74.6667H77.0003C78.2888 74.6667 79.3337 73.6218 79.3337 72.3334V53.0834C79.3337 52.1165 78.5498 51.3334 77.5837 51.3334ZM42.0003 66.7917C42.0003 67.2751 41.6088 67.6667 41.1253 67.6667H38.2087C37.7252 67.6667 37.3337 67.2751 37.3337 66.7917V63.875C37.3337 63.3916 37.7252 63 38.2087 63H41.1253C41.6088 63 42.0003 63.3916 42.0003 63.875V66.7917ZM42.0003 59.7917C42.0003 60.2751 41.6088 60.6667 41.1253 60.6667H38.2087C37.7252 60.6667 37.3337 60.2751 37.3337 59.7917V56.875C37.3337 56.3916 37.7252 56 38.2087 56H41.1253C41.6088 56 42.0003 56.3916 42.0003 56.875V59.7917ZM42.0003 52.7917C42.0003 53.2751 41.6088 53.6667 41.1253 53.6667H38.2087C37.7252 53.6667 37.3337 53.2751 37.3337 52.7917V49.875C37.3337 49.3916 37.7252 49 38.2087 49H41.1253C41.6088 49 42.0003 49.3916 42.0003 49.875V52.7917ZM51.3337 66.7917C51.3337 67.2751 50.9421 67.6667 50.4587 67.6667H47.542C47.0586 67.6667 46.667 67.2751 46.667 66.7917V63.875C46.667 63.3916 47.0586 63 47.542 63H50.4587C50.9421 63 51.3337 63.3916 51.3337 63.875V66.7917ZM51.3337 59.7917C51.3337 60.2751 50.9421 60.6667 50.4587 60.6667H47.542C47.0586 60.6667 46.667 60.2751 46.667 59.7917V56.875C46.667 56.3916 47.0586 56 47.542 56H50.4587C50.9421 56 51.3337 56.3916 51.3337 56.875V59.7917ZM51.3337 52.7917C51.3337 53.2751 50.9421 53.6667 50.4587 53.6667H47.542C47.0586 53.6667 46.667 53.2751 46.667 52.7917V49.875C46.667 49.3916 47.0586 49 47.542 49H50.4587C50.9421 49 51.3337 49.3916 51.3337 49.875V52.7917ZM63.0003 59.7917C63.0003 60.2751 62.6088 60.6667 62.1253 60.6667H59.2087C58.7252 60.6667 58.3337 60.2751 58.3337 59.7917V56.875C58.3337 56.3916 58.7252 56 59.2087 56H62.1253C62.6088 56 63.0003 56.3916 63.0003 56.875V59.7917ZM63.0003 52.7917C63.0003 53.2751 62.6088 53.6667 62.1253 53.6667H59.2087C58.7252 53.6667 58.3337 53.2751 58.3337 52.7917V49.875C58.3337 49.3916 58.7252 49 59.2087 49H62.1253C62.6088 49 63.0003 49.3916 63.0003 49.875V52.7917ZM63.0003 45.7917C63.0003 46.2751 62.6088 46.6667 62.1253 46.6667H59.2087C58.7252 46.6667 58.3337 46.2751 58.3337 45.7917V42.875C58.3337 42.3916 58.7252 42 59.2087 42H62.1253C62.6088 42 63.0003 42.3916 63.0003 42.875V45.7917ZM74.667 66.7917C74.667 67.2751 74.2754 67.6667 73.792 67.6667H70.8753C70.3919 67.6667 70.0003 67.2751 70.0003 66.7917V63.875C70.0003 63.3916 70.3919 63 70.8753 63H73.792C74.2754 63 74.667 63.3916 74.667 63.875V66.7917ZM74.667 59.7917C74.667 60.2751 74.2754 60.6667 73.792 60.6667H70.8753C70.3919 60.6667 70.0003 60.2751 70.0003 59.7917V56.875C70.0003 56.3916 70.3919 56 70.8753 56H73.792C74.2754 56 74.667 56.3916 74.667 56.875V59.7917Z" fill="#CE82FF"/>
</g>
<defs>
<clipPath id="clip0_2_3352">
<rect width="56" height="56" fill="white" transform="translate(28 28)"/>
</clipPath>
</defs>
</svg>
